<svg xmlns="http://www.w3.org/2000/svg" viewBox="0 0 160 160" fill="none">
  <defs>
    <linearGradient id="ring" x1="24" y1="18" x2="138" y2="144" gradientUnits="userSpaceOnUse">
      <stop stop-color="#5E7D60"/>
      <stop offset="1" stop-color="#35513A"/>
    </linearGradient>
    <linearGradient id="book" x1="42" y1="101" x2="118" y2="125" gradientUnits="userSpaceOnUse">
      <stop stop-color="#FFF7EF"/>
      <stop offset="1" stop-color="#F0E1CF"/>
    </linearGradient>
    <linearGradient id="flame" x1="80" y1="24" x2="80" y2="98" gradientUnits="userSpaceOnUse">
      <stop stop-color="#D89A45"/>
      <stop offset="1" stop-color="#8D4B28"/>
    </linearGradient>
  </defs>
  <circle cx="80" cy="80" r="70" fill="#F9F3EA"/>
  <circle cx="80" cy="80" r="64" stroke="url(#ring)" stroke-width="8"/>
  <path d="M80 37V100" stroke="#35513A" stroke-linecap="round" stroke-width="8"/>
  <path d="M62 55C71 48 76 39 79 28C85 41 95 48 104 53C94 59 87 67 82 78C78 67 71 60 62 55Z" fill="url(#flame)"/>
  <path d="M55 105C64 95 73 90 80 89C87 90 96 95 105 105" stroke="#35513A" stroke-linecap="round" stroke-width="6"/>
  <path d="M34 111C47 100 63 96 80 96C97 96 113 100 126 111V119C113 112 97 109 80 109C63 109 47 112 34 119V111Z" fill="url(#book)" stroke="#7D5D46" stroke-width="4"/>
  <path d="M38 121C51 114 64 112 80 112C96 112 109 114 122 121" stroke="#D6B48B" stroke-linecap="round" stroke-width="3"/>
  <path d="M80 96V126" stroke="#C7A57B" stroke-linecap="round" stroke-width="3"/>
</svg>
