<svg xmlns="http://www.w3.org/2000/svg" viewBox="160 20 170 130">
  <path
    fill="#000"
    fill-rule="evenodd"
    d="M315.187 125.672h1.118l1.287 3.47 1.288-3.47h1.118v4.42h-.782v-3.413h-.057l-1.23 3.414h-.672l-1.231-3.414h-.057V130.093h-.782v-4.421zm-2.575.672h-1.287v-.672h3.413v.672h-1.342v3.749h-.784v-3.75zm-63.75 9.954c0 .54.62.543.733 0 .822-3.997 2.076-6.662 4.032-9.25l-4.4.004a.363.363 0 0 0-.364.363v8.883zm32.32-55.485c-.18-.584-.687-.623-.682-.011.05 5.779-1.611 10.745-12.16 21.294l-8.343 8.337c-3.798 3.797-7.212 7.263-9.23 10.729h8.24l.974-.975 11.97-11.983c9.97-9.97 11.36-20.513 9.231-27.391zm-11.187 35.25l-9.999 10.006c-6.052 6.053-11.133 11.268-11.133 16.97l.005 1.589c0 .43.536.499.701.048 1.868-5.106 8.112-10.556 19.564-8.624 0 0 49.89 8.62 50.31 8.658.488.043.728-.437.415-.81-.19-.225-23.22-23.255-23.22-23.255l-26.642-4.582zm-36.093 10.986a.364.364 0 0 1-.363-.364v-5.162c0-.202.163-.364.364-.364l8.732.002a.364.364 0 0 0 .364-.364c-.023-4.637-3.52-7.787-17.523-5.35l-30.24 5.198s-23.032 23.03-23.221 23.255c-.314.373-.073.853.414.81.42-.037 50.31-8.658 50.31-8.658 11.451-1.932 17.696 3.518 19.564 8.624.165.45.702.383.702-.048v-17.216c0-.2-.162-.363-.363-.363h-8.74zm-13.938-72.152c-9.97 9.968-11.36 20.514-9.232 27.392.181.584.688.623.683.01-.05-5.778 1.612-10.744 12.16-21.293l22.74-22.733c6.053-6.053 11.135-11.268 11.135-16.971v-8.896c0-.541-.62-.543-.732 0-1.497 7.26-4.4 10.124-10.388 16.112l-26.367 26.379zm37.507-17.973v-8.956c0-.541-.62-.543-.732 0-1.495 7.26-4.391 10.169-10.38 16.157l-23.882 23.862c-11.59 11.59-13.596 22.808-7.701 30.016.393.482.816.193.559-.387-3.897-8.818 5.449-18.168 9.898-22.617l21.104-21.104c6.053-6.053 11.135-11.268 11.135-16.971zm-34.34 46.045c-11.59 11.59-6.26 22.785.5 25.867.594.27.828-.211.375-.603-5.422-4.698-3.775-12.598 3.042-19.415l19.264-19.265c6.053-6.052 11.134-11.267 11.134-16.97v-8.895c0-.541-.62-.543-.732 0-1.494 7.258-4.392 10.11-10.38 16.098l-23.202 23.183zm25.71 28.81v8.957c0 .54.62.543.731 0 1.496-7.258 4.392-10.168 10.38-16.156l9.487-9.467c11.59-11.59 13.595-22.806 7.7-30.015-.392-.481-.815-.193-.559.387 3.898 8.818-5.448 18.167-9.897 22.618l-6.707 6.708c-6.053 6.05-11.136 11.266-11.136 16.969zm11.137-22.861c-5.988 5.987-8.886 8.84-10.38 16.099-.113.544-.733.542-.733 0v-8.895c0-5.703 5.081-10.918 11.133-16.971l4.869-4.867c6.818-6.818 8.463-14.717 3.042-19.415-.453-.392-.219-.874.376-.603 6.76 3.08 12.09 14.275.498 25.867l-8.805 8.785z"
  />
</svg>
