<svg xmlns="http://www.w3.org/2000/svg" viewBox="0 0 64 64" role="img" aria-labelledby="title desc">
  <title id="title">Élő Víz favicon</title>
  <desc id="desc">Az élet fája és az alóla futó folyó.</desc>
  <rect width="64" height="64" rx="16" fill="#073d38" />
  <path d="M32 10v21M32 17c-5.2-6-12.1-7.4-19.4-4.2 2.9 7.5 9.3 10.8 19.4 10M32 17c5.2-6 12.1-7.4 19.4-4.2-2.9 7.5-9.3 10.8-19.4 10" fill="none" stroke="#94df8f" stroke-linecap="round" stroke-linejoin="round" stroke-width="3" />
  <path d="M32 30c-8.1 5.4-12.6 12.2-13.8 20.7M32 30c8.1 5.4 12.6 12.2 13.8 20.7M23.4 44.3c5.7-2.7 11.5-2.7 17.2 0M19.8 51c8.1-3.3 16.3-3.3 24.4 0" fill="none" stroke="#8edce4" stroke-linecap="round" stroke-width="3" />
</svg>
